{
    "asset" : {
        "copyright" : "Author: cephei",
        "generator" : "Khronos glTF Blender I/O v1.1.46",
        "version" : "2.0"
    },
    "scene" : 0,
    "scenes" : [
        {
            "extras" : {
                "glTF2ExportSettings" : {
                    "export_animations" : 0,
                    "export_apply" : 1,
                    "export_colors" : 1,
                    "export_copyright" : "Author: cephei",
                    "export_current_frame" : 1,
                    "export_draco_mesh_compression_enable" : 0,
                    "export_extras" : 1,
                    "export_format" : "GLTF_SEPARATE",
                    "export_lights" : 0,
                    "export_morph" : 0,
                    "export_selected" : 1,
                    "export_skins" : 1,
                    "export_tangents" : 1,
                    "export_texture_dir" : ""
                }
            },
            "name" : "Scene",
            "nodes" : [
                0,
                1,
                2,
                3
            ]
        }
    ],
    "nodes" : [
        {
            "mesh" : 0,
            "name" : "Handles"
        },
        {
            "mesh" : 1,
            "name" : "SpindleTop",
            "translation" : [
                0,
                0.21881736814975739,
                0
            ]
        },
        {
            "mesh" : 2,
            "name" : "Spindle"
        },
        {
            "mesh" : 3,
            "name" : "SpinnerBase"
        }
    ],
    "materials" : [
        {
            "doubleSided" : true,
            "name" : "Aluminum",
            "pbrMetallicRoughness" : {}
        },
        {
            "doubleSided" : true,
            "name" : "Marble",
            "pbrMetallicRoughness" : {}
        },
        {
            "doubleSided" : true,
            "name" : "RedWood",
            "pbrMetallicRoughness" : {}
        }
    ],
    "meshes" : [
        {
            "name" : "Circle.007",
            "primitives" : [
                {
                    "attributes" : {
                        "POSITION" : 0,
                        "NORMAL" : 1
                    },
                    "indices" : 2,
                    "material" : 0
                }
            ]
        },
        {
            "name" : "Icosphere",
            "primitives" : [
                {
                    "attributes" : {
                        "POSITION" : 3,
                        "NORMAL" : 4,
                        "TANGENT" : 5,
                        "TEXCOORD_0" : 6
                    },
                    "indices" : 7,
                    "material" : 1
                }
            ]
        },
        {
            "name" : "Circle.006",
            "primitives" : [
                {
                    "attributes" : {
                        "POSITION" : 8,
                        "NORMAL" : 9
                    },
                    "indices" : 10,
                    "material" : 0
                }
            ]
        },
        {
            "name" : "Circle.003",
            "primitives" : [
                {
                    "attributes" : {
                        "POSITION" : 11,
                        "NORMAL" : 12,
                        "TANGENT" : 13,
                        "TEXCOORD_0" : 14
                    },
                    "indices" : 15,
                    "material" : 2
                }
            ]
        }
    ],
    "accessors" : [
        {
            "bufferView" : 0,
            "componentType" : 5126,
            "count" : 8020,
            "max" : [
                0.1407831609249115,
                0.18442626297473907,
                0.1407831609249115
            ],
            "min" : [
                -0.1407831609249115,
                0.16711097955703735,
                -0.1407831609249115
            ],
            "type" : "VEC3"
        },
        {
            "bufferView" : 1,
            "componentType" : 5126,
            "count" : 8020,
            "type" : "VEC3"
        },
        {
            "bufferView" : 2,
            "componentType" : 5123,
            "count" : 47808,
            "type" : "SCALAR"
        },
        {
            "bufferView" : 3,
            "componentType" : 5126,
            "count" : 358,
            "max" : [
                0.012754521332681179,
                0.013344469480216503,
                0.012761086225509644
            ],
            "min" : [
                -0.012756298296153545,
                0.0006656041368842125,
                -0.012761110439896584
            ],
            "type" : "VEC3"
        },
        {
            "bufferView" : 4,
            "componentType" : 5126,
            "count" : 358,
            "type" : "VEC3"
        },
        {
            "bufferView" : 5,
            "componentType" : 5126,
            "count" : 358,
            "type" : "VEC4"
        },
        {
            "bufferView" : 6,
            "componentType" : 5126,
            "count" : 358,
            "type" : "VEC2"
        },
        {
            "bufferView" : 7,
            "componentType" : 5123,
            "count" : 720,
            "type" : "SCALAR"
        },
        {
            "bufferView" : 8,
            "componentType" : 5126,
            "count" : 3616,
            "max" : [
                0.05215310677886009,
                0.22080998122692108,
                0.05215310677886009
            ],
            "min" : [
                -0.05215310677886009,
                0.01076418161392212,
                -0.05215310677886009
            ],
            "type" : "VEC3"
        },
        {
            "bufferView" : 9,
            "componentType" : 5126,
            "count" : 3616,
            "type" : "VEC3"
        },
        {
            "bufferView" : 10,
            "componentType" : 5123,
            "count" : 21504,
            "type" : "SCALAR"
        },
        {
            "bufferView" : 11,
            "componentType" : 5126,
            "count" : 792,
            "max" : [
                0.19182872772216797,
                0.017372433096170425,
                0.19182854890823364
            ],
            "min" : [
                -0.19182893633842468,
                -0.02625608816742897,
                -0.191829115152359
            ],
            "type" : "VEC3"
        },
        {
            "bufferView" : 12,
            "componentType" : 5126,
            "count" : 792,
            "type" : "VEC3"
        },
        {
            "bufferView" : 13,
            "componentType" : 5126,
            "count" : 792,
            "type" : "VEC4"
        },
        {
            "bufferView" : 14,
            "componentType" : 5126,
            "count" : 792,
            "type" : "VEC2"
        },
        {
            "bufferView" : 15,
            "componentType" : 5123,
            "count" : 3840,
            "type" : "SCALAR"
        }
    ],
    "bufferViews" : [
        {
            "buffer" : 0,
            "byteLength" : 96240,
            "byteOffset" : 0
        },
        {
            "buffer" : 0,
            "byteLength" : 96240,
            "byteOffset" : 96240
        },
        {
            "buffer" : 0,
            "byteLength" : 95616,
            "byteOffset" : 192480
        },
        {
            "buffer" : 0,
            "byteLength" : 4296,
            "byteOffset" : 288096
        },
        {
            "buffer" : 0,
            "byteLength" : 4296,
            "byteOffset" : 292392
        },
        {
            "buffer" : 0,
            "byteLength" : 5728,
            "byteOffset" : 296688
        },
        {
            "buffer" : 0,
            "byteLength" : 2864,
            "byteOffset" : 302416
        },
        {
            "buffer" : 0,
            "byteLength" : 1440,
            "byteOffset" : 305280
        },
        {
            "buffer" : 0,
            "byteLength" : 43392,
            "byteOffset" : 306720
        },
        {
            "buffer" : 0,
            "byteLength" : 43392,
            "byteOffset" : 350112
        },
        {
            "buffer" : 0,
            "byteLength" : 43008,
            "byteOffset" : 393504
        },
        {
            "buffer" : 0,
            "byteLength" : 9504,
            "byteOffset" : 436512
        },
        {
            "buffer" : 0,
            "byteLength" : 9504,
            "byteOffset" : 446016
        },
        {
            "buffer" : 0,
            "byteLength" : 12672,
            "byteOffset" : 455520
        },
        {
            "buffer" : 0,
            "byteLength" : 6336,
            "byteOffset" : 468192
        },
        {
            "buffer" : 0,
            "byteLength" : 7680,
            "byteOffset" : 474528
        }
    ],
    "buffers" : [
        {
            "byteLength" : 482208,
            "uri" : "centerRoll.bin"
        }
    ]
}
