# Blender v2.82 (sub 7) OBJ File: 'chip1.blend'
# www.blender.org
mtllib chip1.mtl
o Circle
v 0.000000 0.000000 -17.998966
v -3.511424 0.000000 -17.653120
v -6.887907 0.000000 -16.628876
v -9.999690 0.000000 -14.965593
v -12.727191 0.000000 -12.727191
v -14.965594 0.000000 -9.999689
v -16.628876 0.000000 -6.887906
v -17.653120 0.000000 -3.511425
v -17.998966 0.000000 -0.000001
v -17.653122 0.000000 3.511422
v -16.628878 0.000000 6.887903
v -14.965594 0.000000 9.999689
v -12.727191 0.000000 12.727191
v -9.999689 0.000000 14.965594
v -6.887903 0.000000 16.628878
v -3.511420 0.000000 17.653122
v 0.000006 0.000000 17.998966
v 3.511431 0.000000 17.653120
v 6.887914 0.000000 16.628872
v 9.999699 0.000000 14.965588
v 12.727200 0.000000 12.727183
v 14.965601 0.000000 9.999680
v 16.628883 0.000000 6.887893
v 17.653124 0.000000 3.511409
v 17.998966 0.000000 -0.000017
v 17.653118 0.000000 -3.511443
v 16.628868 0.000000 -6.887925
v 14.965581 0.000000 -9.999708
v 12.727175 0.000000 -12.727207
v 9.999670 0.000000 -14.965607
v 6.887882 0.000000 -16.628887
v 3.511397 0.000000 -17.653126
v -0.000002 0.000000 -0.000005
v 6.887882 3.599794 -16.628887
v 9.999670 3.599794 -14.965607
v 12.727175 3.599794 -12.727207
v 14.965581 3.599794 -9.999708
v 16.628868 3.599794 -6.887925
v 17.653118 3.599794 -3.511443
v 17.998966 3.599794 -0.000017
v 17.653124 3.599794 3.511409
v 16.628883 3.599794 6.887893
v 14.965601 3.599794 9.999680
v 12.727200 3.599794 12.727183
v 9.999699 3.599794 14.965588
v 6.887914 3.599794 16.628872
v 3.511431 3.599794 17.653120
v 0.000006 3.599794 17.998966
v -3.511420 3.599794 17.653122
v -6.887903 3.599794 16.628878
v -9.999689 3.599794 14.965594
v -12.727191 3.599794 12.727191
v -14.965594 3.599794 9.999689
v -16.628878 3.599794 6.887903
v -17.653122 3.599794 3.511422
v -17.998966 3.599794 -0.000001
v -17.653120 3.599794 -3.511425
v -16.628876 3.599794 -6.887906
v -14.965594 3.599794 -9.999689
v -12.727191 3.599794 -12.727191
v -9.999690 3.599794 -14.965593
v -6.887907 3.599794 -16.628876
v -3.511424 3.599794 -17.653120
v 0.000000 3.599794 -17.998966
v 3.511397 3.599794 -17.653126
v -0.000002 3.599793 -0.000005
vt 0.549236 0.999900
vt 0.450764 0.999900
vt 0.500000 0.500000
vt 0.181333 0.111702
vt 0.263209 0.056994
vt 0.645816 0.980689
vt 0.111703 0.181332
vt 0.736792 0.943006
vt 0.056994 0.263208
vt 0.818668 0.888298
vt 0.019311 0.354184
vt 0.980689 0.354185
vt 0.999900 0.450765
vt 0.888298 0.818667
vt 0.000100 0.450764
vt 0.943006 0.263209
vt 0.943006 0.736791
vt 0.000100 0.549236
vt 0.888298 0.181333
vt 0.980689 0.645815
vt 0.019311 0.645815
vt 0.818668 0.111703
vt 0.999900 0.549236
vt 0.056994 0.736791
vt 0.736792 0.056995
vt 0.111702 0.818668
vt 0.645816 0.019311
vt 0.181332 0.888298
vt 0.549236 0.000100
vt 0.263208 0.943006
vt 0.450765 0.000100
vt 0.354185 0.980689
vt 0.354185 0.019311
vt 0.000000 0.000000
vt 0.000000 0.000000
vt 0.000000 0.000000
vt 0.000000 0.000000
vt 0.000000 0.000000
vt 0.000000 0.000000
vt 0.000000 0.000000
vt 0.000000 0.000000
vt 0.000000 0.000000
vt 0.000000 0.000000
vt 0.000000 0.000000
vt 0.000000 0.000000
vt 0.000000 0.000000
vt 0.000000 0.000000
vt 0.000000 0.000000
vt 0.000000 0.000000
vt 0.000000 0.000000
vt 0.000000 0.000000
vt 0.000000 0.000000
vt 0.000000 0.000000
vt 0.000000 0.000000
vt 0.000000 0.000000
vt 0.000000 0.000000
vt 0.000000 0.000000
vt 0.000000 0.000000
vt 0.000000 0.000000
vt 0.000000 0.000000
vt 0.000000 0.000000
vt 0.000000 0.000000
vt 0.000000 0.000000
vt 0.000000 0.000000
vt 0.000000 0.000000
vt 0.000000 0.000000
vt 0.000000 0.000000
vt 0.000000 0.000000
vt 0.000000 0.000000
vt 0.000000 0.000000
vt 0.000000 0.000000
vt 0.000000 0.000000
vt 0.000000 0.000000
vt 0.000000 0.000000
vt 0.000000 0.000000
vt 0.000000 0.000000
vt 0.000000 0.000000
vt 0.000000 0.000000
vt 0.000000 0.000000
vt 0.000000 0.000000
vt 0.000000 0.000000
vt 0.000000 0.000000
vt 0.000000 0.000000
vt 0.000000 0.000000
vt 0.000000 0.000000
vt 0.000000 0.000000
vt 0.000000 0.000000
vt 0.000000 0.000000
vt 0.000000 0.000000
vt 0.000000 0.000000
vt 0.000000 0.000000
vt 0.000000 0.000000
vt 0.000000 0.000000
vt 0.000000 0.000000
vt 0.000000 0.000000
vt 0.000000 0.000000
vt 0.000000 0.000000
vt 0.888298 0.181333
vt 0.943006 0.263209
vt 0.500000 0.500000
vt 0.943006 0.736791
vt 0.888298 0.818667
vt 0.000100 0.549236
vt 0.000100 0.450764
vt 0.818668 0.111703
vt 0.980689 0.645815
vt 0.019311 0.645816
vt 0.736792 0.056995
vt 0.999900 0.549236
vt 0.056994 0.736792
vt 0.645816 0.019311
vt 0.999900 0.450764
vt 0.111702 0.818668
vt 0.549236 0.000100
vt 0.980689 0.354184
vt 0.181332 0.888298
vt 0.450764 0.000100
vt 0.263209 0.943006
vt 0.354185 0.019311
vt 0.354185 0.980689
vt 0.263209 0.056994
vt 0.450765 0.999900
vt 0.181332 0.111702
vt 0.549236 0.999900
vt 0.111702 0.181332
vt 0.645816 0.980689
vt 0.736792 0.943005
vt 0.056994 0.263208
vt 0.818668 0.888297
vt 0.019311 0.354184
vn 0.0000 -1.0000 0.0000
vn 0.9952 0.0000 0.0980
vn -0.8819 0.0000 0.4714
vn 0.9952 0.0000 -0.0980
vn -0.7730 0.0000 0.6344
vn 0.9569 0.0000 -0.2903
vn -0.6344 0.0000 0.7730
vn 0.8819 0.0000 -0.4714
vn -0.4714 0.0000 0.8819
vn -0.0980 0.0000 -0.9952
vn 0.7730 0.0000 -0.6344
vn -0.2903 0.0000 0.9569
vn -0.2903 0.0000 -0.9569
vn 0.6344 0.0000 -0.7730
vn -0.0980 0.0000 0.9952
vn -0.4714 0.0000 -0.8819
vn 0.4714 0.0000 -0.8819
vn 0.0980 0.0000 0.9952
vn -0.6344 0.0000 -0.7730
vn 0.2903 0.0000 -0.9569
vn 0.2903 0.0000 0.9569
vn -0.7730 0.0000 -0.6344
vn 0.0980 0.0000 -0.9952
vn 0.4714 0.0000 0.8819
vn -0.8819 0.0000 -0.4714
vn 0.6344 0.0000 0.7730
vn -0.9569 0.0000 -0.2903
vn 0.7730 0.0000 0.6344
vn -0.9952 0.0000 -0.0980
vn 0.8819 0.0000 0.4714
vn -0.9952 0.0000 0.0980
vn 0.9569 0.0000 0.2903
vn -0.9569 0.0000 0.2903
vn -0.0000 1.0000 0.0000
usemtl None
s off
f 25/1/1 24/2/1 33/3/1
f 12/4/1 11/5/1 33/3/1
f 26/6/1 25/1/1 33/3/1
f 13/7/1 12/4/1 33/3/1
f 27/8/1 26/6/1 33/3/1
f 14/9/1 13/7/1 33/3/1
f 28/10/1 27/8/1 33/3/1
f 15/11/1 14/9/1 33/3/1
f 2/12/1 1/13/1 33/3/1
f 29/14/1 28/10/1 33/3/1
f 16/15/1 15/11/1 33/3/1
f 3/16/1 2/12/1 33/3/1
f 30/17/1 29/14/1 33/3/1
f 17/18/1 16/15/1 33/3/1
f 4/19/1 3/16/1 33/3/1
f 31/20/1 30/17/1 33/3/1
f 18/21/1 17/18/1 33/3/1
f 5/22/1 4/19/1 33/3/1
f 32/23/1 31/20/1 33/3/1
f 19/24/1 18/21/1 33/3/1
f 6/25/1 5/22/1 33/3/1
f 1/13/1 32/23/1 33/3/1
f 20/26/1 19/24/1 33/3/1
f 7/27/1 6/25/1 33/3/1
f 21/28/1 20/26/1 33/3/1
f 8/29/1 7/27/1 33/3/1
f 22/30/1 21/28/1 33/3/1
f 9/31/1 8/29/1 33/3/1
f 23/32/1 22/30/1 33/3/1
f 10/33/1 9/31/1 33/3/1
f 24/2/1 23/32/1 33/3/1
f 11/5/1 10/33/1 33/3/1
f 24/34/2 25/35/2 40/36/2 41/37/2
f 11/38/3 12/39/3 53/40/3 54/41/3
f 25/35/4 26/42/4 39/43/4 40/36/4
f 12/39/5 13/44/5 52/45/5 53/40/5
f 26/42/6 27/46/6 38/47/6 39/43/6
f 13/44/7 14/48/7 51/49/7 52/45/7
f 27/46/8 28/50/8 37/51/8 38/47/8
f 14/48/9 15/52/9 50/53/9 51/49/9
f 1/54/10 2/55/10 63/56/10 64/57/10
f 28/50/11 29/58/11 36/59/11 37/51/11
f 15/52/12 16/60/12 49/61/12 50/53/12
f 2/55/13 3/62/13 62/63/13 63/56/13
f 29/58/14 30/64/14 35/65/14 36/59/14
f 16/60/15 17/66/15 48/67/15 49/61/15
f 3/62/16 4/68/16 61/69/16 62/63/16
f 30/64/17 31/70/17 34/71/17 35/65/17
f 17/66/18 18/72/18 47/73/18 48/67/18
f 4/68/19 5/74/19 60/75/19 61/69/19
f 31/70/20 32/76/20 65/77/20 34/71/20
f 18/72/21 19/78/21 46/79/21 47/73/21
f 5/74/22 6/80/22 59/81/22 60/75/22
f 32/76/23 1/54/23 64/57/23 65/77/23
f 19/78/24 20/82/24 45/83/24 46/79/24
f 6/80/25 7/84/25 58/85/25 59/81/25
f 20/82/26 21/86/26 44/87/26 45/83/26
f 7/84/27 8/88/27 57/89/27 58/85/27
f 21/86/28 22/90/28 43/91/28 44/87/28
f 8/88/29 9/92/29 56/93/29 57/89/29
f 22/90/30 23/94/30 42/95/30 43/91/30
f 9/92/31 10/96/31 55/97/31 56/93/31
f 23/94/32 24/34/32 41/37/32 42/95/32
f 10/96/33 11/38/33 54/41/33 55/97/33
f 34/98/34 65/99/34 66/100/34
f 60/101/34 59/102/34 66/100/34
f 47/103/34 46/104/34 66/100/34
f 35/105/34 34/98/34 66/100/34
f 61/106/34 60/101/34 66/100/34
f 48/107/34 47/103/34 66/100/34
f 36/108/34 35/105/34 66/100/34
f 62/109/34 61/106/34 66/100/34
f 49/110/34 48/107/34 66/100/34
f 37/111/34 36/108/34 66/100/34
f 63/112/34 62/109/34 66/100/34
f 50/113/34 49/110/34 66/100/34
f 38/114/34 37/111/34 66/100/34
f 64/115/34 63/112/34 66/100/34
f 51/116/34 50/113/34 66/100/34
f 39/117/34 38/114/34 66/100/34
f 52/118/34 51/116/34 66/100/34
f 40/119/34 39/117/34 66/100/34
f 53/120/34 52/118/34 66/100/34
f 41/121/34 40/119/34 66/100/34
f 54/122/34 53/120/34 66/100/34
f 42/123/34 41/121/34 66/100/34
f 55/124/34 54/122/34 66/100/34
f 43/125/34 42/123/34 66/100/34
f 56/126/34 55/124/34 66/100/34
f 57/127/34 56/126/34 66/100/34
f 44/128/34 43/125/34 66/100/34
f 58/129/34 57/127/34 66/100/34
f 45/130/34 44/128/34 66/100/34
f 65/99/34 64/115/34 66/100/34
f 59/102/34 58/129/34 66/100/34
f 46/104/34 45/130/34 66/100/34
